<svg width="2024" height="1563" xmlns="http://www.w3.org/2000/svg" xmlns:xlink="http://www.w3.org/1999/xlink" overflow="hidden"><defs><clipPath id="clip0"><rect x="620" y="692" width="2024" height="1563"/></clipPath></defs><g clip-path="url(#clip0)" transform="translate(-620 -692)"><path d="M1633.5 1671C1633.5 1605.55 1683.87 1552.5 1746 1552.5 1808.13 1552.5 1858.5 1605.55 1858.5 1671 1858.5 1736.45 1808.13 1789.5 1746 1789.5 1683.87 1789.5 1633.5 1736.45 1633.5 1671Z" stroke="#000000" stroke-width="4.58333" stroke-miterlimit="8" fill="#FFFFFF" fill-rule="evenodd"/><text font-family="Times New Roman,Times New Roman_MSFontService,sans-serif" font-weight="400" font-size="110" transform="matrix(1 0 0 1 1714.59 1710)">+</text><path d="M1013.5 1671C1013.5 1605.55 1064.09 1552.5 1126.5 1552.5 1188.91 1552.5 1239.5 1605.55 1239.5 1671 1239.5 1736.45 1188.91 1789.5 1126.5 1789.5 1064.09 1789.5 1013.5 1736.45 1013.5 1671Z" stroke="#000000" stroke-width="4.58333" stroke-miterlimit="8" fill="#FFFFFF" fill-rule="evenodd"/><text font-family="Times New Roman,Times New Roman_MSFontService,sans-serif" font-weight="400" font-size="110" transform="matrix(1 0 0 1 1095.12 1710)">+</text><path d="M1323.5 1238C1323.5 1172.55 1374.09 1119.5 1436.5 1119.5 1498.91 1119.5 1549.5 1172.55 1549.5 1238 1549.5 1303.45 1498.91 1356.5 1436.5 1356.5 1374.09 1356.5 1323.5 1303.45 1323.5 1238Z" stroke="#000000" stroke-width="4.58333" stroke-miterlimit="8" fill="#FFFFFF" fill-rule="evenodd"/><text font-family="DengXian,DengXian_MSFontService,sans-serif" font-weight="400" font-size="110" transform="matrix(1 0 0 1 1399.12 1275)">×</text><path d="M1974.5 1238C1974.5 1172.55 2025.09 1119.5 2087.5 1119.5 2149.91 1119.5 2200.5 1172.55 2200.5 1238 2200.5 1303.45 2149.91 1356.5 2087.5 1356.5 2025.09 1356.5 1974.5 1303.45 1974.5 1238Z" stroke="#000000" stroke-width="4.58333" stroke-miterlimit="8" fill="#FFFFFF" fill-rule="evenodd"/><text font-family="DengXian,DengXian_MSFontService,sans-serif" font-weight="400" font-size="110" transform="matrix(1 0 0 1 2050.44 1275)">×</text><path d="M0.996966-0.564794 139.781 244.414 137.787 245.544-0.996966 0.564794ZM148.488 234.214 150.08 264.918 124.561 247.769Z" transform="matrix(1 0 0 -1 1206 1585.92)"/><path d="M1665.08 1586.48 1526.3 1341.5 1528.29 1340.37 1667.08 1585.35ZM1517.59 1351.7 1516 1321 1541.52 1338.15Z"/><path d="M0.944565-0.648638 169.893 245.379 168.004 246.676-0.944565 0.648638ZM177.689 234.465 181.921 264.918 155.019 250.033Z" transform="matrix(1 0 0 -1 1825 1585.92)"/><path d="M0.943546-0.650119 170.474 245.397 168.587 246.698-0.943546 0.650119ZM178.253 234.472 182.533 264.918 155.608 250.075Z" transform="matrix(1 0 0 -1 864 2018.92)"/><path d="M1402.23 2019.6 1218.76 1773.07 1220.6 1771.7 1404.07 2018.23ZM1211.39 1784.27 1206 1754 1233.45 1767.85Z"/><path d="M0.944565-0.648638 169.893 245.379 168.004 246.676-0.944565 0.648638ZM177.689 234.465 181.921 264.918 155.019 250.033Z" transform="matrix(1 0 0 -1 1484 2018.92)"/><path d="M2005.98 2019.57 1837.03 1773.54 1838.92 1772.24 2007.87 2018.27ZM1829.23 1784.45 1825 1754 1851.9 1768.89Z"/><path d="M2378.56 1670.44 2177.95 1341.17 2179.9 1339.97 2380.52 1669.24ZM2169.57 1351.64 2167 1321 2193.05 1337.33Z"/><path d="M1.14565-0.0205025 4.85447 207.223 2.56317 207.264-1.14565 0.0205025ZM17.3746 202.415 4.11887 230.157-10.121 202.907Z" transform="matrix(1 0 0 -1 1436 1119.16)"/><path d="M1.14583-1.73155e-06 1.14616 215.899-1.14551 215.899-1.14583 1.73155e-06ZM13.7503 211.316 0.000360892 238.816-13.7497 211.316Z" transform="matrix(1 0 0 -1 2087 1118.82)"/><text font-family="Times New Roman,Times New Roman_MSFontService,sans-serif" font-weight="400" font-size="110" transform="matrix(1 0 0 1 686.055 2161)">Input x<tspan font-size="73" x="314.531" y="27">1</tspan><tspan font-size="110" x="617.424" y="1">Input x</tspan><tspan font-size="73" x="931.955" y="28">2</tspan><tspan font-size="110" x="1172.3" y="1">Input x</tspan><tspan font-size="73" x="1486.83" y="28">3</tspan><tspan font-size="110" x="1562.64" y="-368">Input x</tspan><tspan font-size="73" x="1877.18" y="-341">4</tspan><tspan font-size="110" x="585.893" y="-1327">Output x</tspan><tspan font-size="73" x="973.758" y="-1300">5</tspan><tspan font-size="110" x="1263.26" y="-1329">Output x</tspan><tspan font-size="73" x="1651.13" y="-1302">6</tspan></text></g></svg>